<svg width="141" height="94" viewBox="0 0 141 94" fill="none" xmlns="http://www.w3.org/2000/svg">
<path fill-rule="evenodd" clip-rule="evenodd" d="M106.899 93.5821C107.21 94.0706 107.923 94.0706 108.235 93.5821L115.948 81.4785H125C133.837 81.4785 141 74.3151 141 65.4785V16.6108C141 7.77429 133.837 0.610847 125 0.610847L16 0.610847C7.16344 0.610847 0 7.77429 0 16.6108V65.4785C0 74.3151 7.16345 81.4785 16 81.4785L99.1858 81.4785L106.899 93.5821Z" fill="#516EFF"/>
<path fill-rule="evenodd" clip-rule="evenodd" d="M113.279 51.1C113.279 54.5181 110.508 57.289 107.09 57.289L68.0016 57.289C64.5835 57.289 61.8125 54.5181 61.8125 51.1C61.8125 47.6818 64.5835 44.9109 68.0016 44.9109L107.09 44.9109C110.508 44.9109 113.279 47.6818 113.279 51.1Z" fill="white"/>
<path fill-rule="evenodd" clip-rule="evenodd" d="M130.87 30.2529C130.87 33.671 128.099 36.4419 124.681 36.4419L68.0025 36.4419C64.5844 36.4419 61.8135 33.671 61.8135 30.2529C61.8135 26.8348 64.5844 24.0638 68.0025 24.0638L124.681 24.0638C128.099 24.0638 130.87 26.8348 130.87 30.2529Z" fill="white"/>
<circle cx="31.5197" cy="40.6761" r="16.6127" fill="white"/>
</svg>
