<svg width="197" height="59" viewBox="0 0 197 59" fill="none" xmlns="http://www.w3.org/2000/svg">
<rect width="197" height="59" rx="16" fill="#FFE766"/>
<path d="M40.402 38.7585C39.134 38.7585 38.0014 38.54 37.0043 38.103C36.0133 37.666 35.2285 37.0597 34.6499 36.2841C34.0774 35.5024 33.7696 34.5975 33.7266 33.5696H36.6257C36.6626 34.1297 36.8504 34.616 37.1889 35.0284C37.5336 35.4347 37.983 35.7486 38.5369 35.9702C39.0909 36.1918 39.7064 36.3026 40.3835 36.3026C41.1283 36.3026 41.7869 36.1733 42.3594 35.9148C42.938 35.6562 43.3904 35.2962 43.7166 34.8345C44.0429 34.3667 44.206 33.8281 44.206 33.2188C44.206 32.5848 44.0429 32.0277 43.7166 31.5476C43.3965 31.0613 42.9257 30.6797 42.304 30.4027C41.6884 30.1257 40.9437 29.9872 40.0696 29.9872H38.4723V27.6605H40.0696C40.7713 27.6605 41.3868 27.5343 41.9162 27.282C42.4517 27.0296 42.8703 26.6787 43.1719 26.2294C43.4735 25.7739 43.6243 25.2415 43.6243 24.6321C43.6243 24.0473 43.492 23.5395 43.2273 23.1087C42.9688 22.6716 42.5994 22.33 42.1193 22.0838C41.6454 21.8376 41.0852 21.7145 40.4389 21.7145C39.8234 21.7145 39.2479 21.8284 38.7124 22.0561C38.183 22.2777 37.7521 22.5978 37.4197 23.0163C37.0874 23.4287 36.9089 23.9242 36.8842 24.5028H34.1236C34.1544 23.4811 34.456 22.5824 35.0284 21.8068C35.607 21.0312 36.3703 20.425 37.3182 19.9879C38.2661 19.5509 39.3187 19.3324 40.4759 19.3324C41.6884 19.3324 42.7348 19.5694 43.6151 20.0433C44.5014 20.5111 45.1847 21.1359 45.6648 21.9176C46.151 22.6993 46.3911 23.5549 46.3849 24.4844C46.3911 25.5431 46.0956 26.4418 45.4986 27.1804C44.9077 27.919 44.1198 28.4145 43.1349 28.6669V28.8146C44.3906 29.0054 45.3632 29.504 46.0526 30.3104C46.7481 31.1167 47.0928 32.117 47.0866 33.3111C47.0928 34.3513 46.8035 35.2839 46.2188 36.1087C45.6402 36.9335 44.8492 37.5829 43.8459 38.0568C42.8426 38.5246 41.6946 38.7585 40.402 38.7585ZM57.1598 38.8139C55.701 38.8078 54.4545 38.4231 53.4205 37.6598C52.3864 36.8965 51.5954 35.7855 51.0476 34.3267C50.4998 32.8679 50.2259 31.1106 50.2259 29.0547C50.2259 27.005 50.4998 25.2538 51.0476 23.8011C51.6016 22.3485 52.3956 21.2405 53.4297 20.4773C54.4699 19.714 55.7133 19.3324 57.1598 19.3324C58.6063 19.3324 59.8466 19.7171 60.8807 20.4865C61.9148 21.2498 62.7057 22.3577 63.2536 23.8104C63.8075 25.2569 64.0845 27.005 64.0845 29.0547C64.0845 31.1167 63.8106 32.8771 63.2628 34.3359C62.715 35.7886 61.924 36.8996 60.8899 37.669C59.8558 38.4323 58.6125 38.8139 57.1598 38.8139ZM57.1598 36.3487C58.4401 36.3487 59.4403 35.724 60.1605 34.4744C60.8868 33.2249 61.25 31.4183 61.25 29.0547C61.25 27.4851 61.0838 26.1586 60.7514 25.0753C60.4252 23.9858 59.9543 23.161 59.3388 22.6009C58.7294 22.0346 58.0031 21.7514 57.1598 21.7514C55.8857 21.7514 54.8854 22.3793 54.1591 23.6349C53.4328 24.8906 53.0665 26.6972 53.0604 29.0547C53.0604 30.6304 53.2235 31.9631 53.5497 33.0526C53.8821 34.1359 54.353 34.9576 54.9624 35.5178C55.5717 36.0717 56.3042 36.3487 57.1598 36.3487ZM73.943 38.8139C72.4842 38.8078 71.2377 38.4231 70.2037 37.6598C69.1696 36.8965 68.3786 35.7855 67.8308 34.3267C67.283 32.8679 67.0091 31.1106 67.0091 29.0547C67.0091 27.005 67.283 25.2538 67.8308 23.8011C68.3848 22.3485 69.1788 21.2405 70.2129 20.4773C71.2531 19.714 72.4965 19.3324 73.943 19.3324C75.3895 19.3324 76.6298 19.7171 77.6639 20.4865C78.698 21.2498 79.4889 22.3577 80.0368 23.8104C80.5907 25.2569 80.8677 27.005 80.8677 29.0547C80.8677 31.1167 80.5938 32.8771 80.046 34.3359C79.4982 35.7886 78.7072 36.8996 77.6731 37.669C76.639 38.4323 75.3957 38.8139 73.943 38.8139ZM73.943 36.3487C75.2233 36.3487 76.2235 35.724 76.9437 34.4744C77.67 33.2249 78.0332 31.4183 78.0332 29.0547C78.0332 27.4851 77.867 26.1586 77.5346 25.0753C77.2084 23.9858 76.7375 23.161 76.122 22.6009C75.5126 22.0346 74.7863 21.7514 73.943 21.7514C72.6689 21.7514 71.6686 22.3793 70.9423 23.6349C70.216 24.8906 69.8497 26.6972 69.8436 29.0547C69.8436 30.6304 70.0067 31.9631 70.3329 33.0526C70.6653 34.1359 71.1362 34.9576 71.7456 35.5178C72.3549 36.0717 73.0874 36.3487 73.943 36.3487ZM86.7191 33.6896L86.7006 30.3196H87.1808L92.8313 24.3182H96.1367L89.6921 31.1506H89.2582L86.7191 33.6896ZM84.18 38.5V19.5909H86.9407V38.5H84.18ZM93.136 38.5L88.0579 31.7599L89.9599 29.8303L96.5245 38.5H93.136ZM103.246 37.2997V24.8168H105.73V37.2997H103.246ZM98.2511 32.2955V29.8118H110.734V32.2955H98.2511Z" fill="white"/>
<path d="M122.628 16.0611V15.0455H129.719V16.0611H126.746V24.5H125.601V16.0611H122.628ZM133.19 24.6477C132.55 24.6477 131.989 24.4954 131.505 24.1907C131.025 23.886 130.65 23.4598 130.379 22.9119C130.111 22.3641 129.977 21.724 129.977 20.9915C129.977 20.2528 130.111 19.6081 130.379 19.0572C130.65 18.5063 131.025 18.0785 131.505 17.7738C131.989 17.4691 132.55 17.3168 133.19 17.3168C133.83 17.3168 134.391 17.4691 134.871 17.7738C135.354 18.0785 135.729 18.5063 135.997 19.0572C136.268 19.6081 136.403 20.2528 136.403 20.9915C136.403 21.724 136.268 22.3641 135.997 22.9119C135.729 23.4598 135.354 23.886 134.871 24.1907C134.391 24.4954 133.83 24.6477 133.19 24.6477ZM133.19 23.669C133.677 23.669 134.077 23.5444 134.391 23.2951C134.705 23.0458 134.937 22.718 135.088 22.3118C135.239 21.9055 135.314 21.4654 135.314 20.9915C135.314 20.5175 135.239 20.0759 135.088 19.6665C134.937 19.2572 134.705 18.9264 134.391 18.674C134.077 18.4216 133.677 18.2955 133.19 18.2955C132.704 18.2955 132.304 18.4216 131.99 18.674C131.676 18.9264 131.444 19.2572 131.293 19.6665C131.142 20.0759 131.067 20.5175 131.067 20.9915C131.067 21.4654 131.142 21.9055 131.293 22.3118C131.444 22.718 131.676 23.0458 131.99 23.2951C132.304 23.5444 132.704 23.669 133.19 23.669ZM140.947 24.6477C140.307 24.6477 139.745 24.4954 139.262 24.1907C138.782 23.886 138.407 23.4598 138.136 22.9119C137.868 22.3641 137.734 21.724 137.734 20.9915C137.734 20.2528 137.868 19.6081 138.136 19.0572C138.407 18.5063 138.782 18.0785 139.262 17.7738C139.745 17.4691 140.307 17.3168 140.947 17.3168C141.587 17.3168 142.147 17.4691 142.628 17.7738C143.111 18.0785 143.486 18.5063 143.754 19.0572C144.025 19.6081 144.16 20.2528 144.16 20.9915C144.16 21.724 144.025 22.3641 143.754 22.9119C143.486 23.4598 143.111 23.886 142.628 24.1907C142.147 24.4954 141.587 24.6477 140.947 24.6477ZM140.947 23.669C141.433 23.669 141.834 23.5444 142.147 23.2951C142.461 23.0458 142.694 22.718 142.845 22.3118C142.995 21.9055 143.071 21.4654 143.071 20.9915C143.071 20.5175 142.995 20.0759 142.845 19.6665C142.694 19.2572 142.461 18.9264 142.147 18.674C141.834 18.4216 141.433 18.2955 140.947 18.2955C140.461 18.2955 140.061 18.4216 139.747 18.674C139.433 18.9264 139.201 19.2572 139.05 19.6665C138.899 20.0759 138.824 20.5175 138.824 20.9915C138.824 21.4654 138.899 21.9055 139.05 22.3118C139.201 22.718 139.433 23.0458 139.747 23.2951C140.061 23.5444 140.461 23.669 140.947 23.669ZM148.907 17.4091V18.3324H145.232V17.4091H148.907ZM146.303 15.7102H147.393V22.4688C147.393 22.7765 147.438 23.0073 147.527 23.1612C147.619 23.312 147.736 23.4136 147.878 23.4659C148.022 23.5152 148.175 23.5398 148.335 23.5398C148.455 23.5398 148.553 23.5336 148.63 23.5213C148.707 23.5059 148.769 23.4936 148.815 23.4844L149.036 24.4631C148.963 24.4908 148.859 24.5185 148.727 24.5462C148.595 24.5769 148.427 24.5923 148.224 24.5923C147.916 24.5923 147.615 24.5262 147.319 24.3938C147.027 24.2615 146.784 24.0599 146.59 23.7891C146.399 23.5182 146.303 23.1766 146.303 22.7642V15.7102ZM151.788 20.2344V24.5H150.698V15.0455H151.788V18.517H151.88C152.046 18.1508 152.296 17.86 152.628 17.6445C152.963 17.426 153.41 17.3168 153.967 17.3168C154.45 17.3168 154.873 17.4137 155.236 17.6076C155.599 17.7984 155.881 18.0923 156.081 18.4893C156.284 18.8833 156.386 19.3849 156.386 19.9943V24.5H155.296V20.0682C155.296 19.505 155.15 19.0695 154.858 18.7617C154.568 18.4509 154.167 18.2955 153.653 18.2955C153.296 18.2955 152.976 18.3709 152.693 18.5217C152.413 18.6725 152.191 18.8925 152.028 19.1818C151.868 19.4711 151.788 19.822 151.788 20.2344ZM129.608 38C129.506 37.6892 129.373 37.4106 129.206 37.1644C129.043 36.9151 128.848 36.7028 128.62 36.5273C128.395 36.3519 128.14 36.218 127.854 36.1257C127.567 36.0334 127.254 35.9872 126.912 35.9872C126.352 35.9872 125.842 36.1319 125.384 36.4212C124.925 36.7105 124.561 37.1367 124.29 37.6999C124.019 38.2631 123.884 38.9541 123.884 39.7727C123.884 40.5914 124.02 41.2823 124.294 41.8455C124.568 42.4087 124.939 42.835 125.407 43.1243C125.875 43.4136 126.401 43.5582 126.986 43.5582C127.527 43.5582 128.004 43.4428 128.417 43.212C128.832 42.9781 129.156 42.6488 129.386 42.2241C129.62 41.7963 129.737 41.2931 129.737 40.7145L130.088 40.7884H127.244V39.7727H130.845V40.7884C130.845 41.567 130.679 42.2441 130.347 42.8196C130.017 43.3951 129.562 43.8414 128.98 44.1584C128.402 44.4723 127.737 44.6293 126.986 44.6293C126.149 44.6293 125.413 44.4323 124.779 44.0384C124.148 43.6444 123.656 43.0843 123.302 42.358C122.951 41.6316 122.776 40.7699 122.776 39.7727C122.776 39.0249 122.876 38.3524 123.076 37.7553C123.279 37.1552 123.565 36.6443 123.934 36.2227C124.304 35.801 124.741 35.4779 125.245 35.2532C125.75 35.0285 126.306 34.9162 126.912 34.9162C127.411 34.9162 127.875 34.9916 128.306 35.1424C128.74 35.2901 129.126 35.5009 129.465 35.7749C129.806 36.0457 130.091 36.3704 130.319 36.7489C130.547 37.1244 130.704 37.5414 130.79 38H129.608ZM135.539 44.6477C134.899 44.6477 134.337 44.4954 133.854 44.1907C133.374 43.886 132.998 43.4598 132.728 42.9119C132.46 42.3641 132.326 41.724 132.326 40.9915C132.326 40.2528 132.46 39.6081 132.728 39.0572C132.998 38.5063 133.374 38.0785 133.854 37.7738C134.337 37.4691 134.899 37.3168 135.539 37.3168C136.179 37.3168 136.739 37.4691 137.219 37.7738C137.703 38.0785 138.078 38.5063 138.346 39.0572C138.617 39.6081 138.752 40.2528 138.752 40.9915C138.752 41.724 138.617 42.3641 138.346 42.9119C138.078 43.4598 137.703 43.886 137.219 44.1907C136.739 44.4954 136.179 44.6477 135.539 44.6477ZM135.539 43.669C136.025 43.669 136.425 43.5444 136.739 43.2951C137.053 43.0458 137.286 42.718 137.436 42.3118C137.587 41.9055 137.663 41.4654 137.663 40.9915C137.663 40.5175 137.587 40.0759 137.436 39.6665C137.286 39.2572 137.053 38.9264 136.739 38.674C136.425 38.4216 136.025 38.2955 135.539 38.2955C135.053 38.2955 134.653 38.4216 134.339 38.674C134.025 38.9264 133.792 39.2572 133.642 39.6665C133.491 40.0759 133.415 40.5175 133.415 40.9915C133.415 41.4654 133.491 41.9055 133.642 42.3118C133.792 42.718 134.025 43.0458 134.339 43.2951C134.653 43.5444 135.053 43.669 135.539 43.669ZM143.499 37.4091V38.3324H139.824V37.4091H143.499ZM140.895 35.7102H141.985V42.4688C141.985 42.7765 142.029 43.0073 142.119 43.1612C142.211 43.312 142.328 43.4136 142.469 43.4659C142.614 43.5152 142.766 43.5398 142.926 43.5398C143.047 43.5398 143.145 43.5336 143.222 43.5213C143.299 43.5059 143.36 43.4936 143.407 43.4844L143.628 44.4631C143.554 44.4908 143.451 44.5185 143.319 44.5462C143.187 44.5769 143.019 44.5923 142.816 44.5923C142.508 44.5923 142.206 44.5262 141.911 44.3938C141.618 44.2615 141.375 44.0599 141.181 43.7891C140.991 43.5182 140.895 43.1766 140.895 42.7642V35.7102ZM148.942 44.5V35.0455H154.611V36.0611H150.087V39.2557H154.186V40.2713H150.087V44.5H148.942ZM156.424 44.5V37.4091H157.513V44.5H156.424ZM156.978 36.2273C156.766 36.2273 156.582 36.1549 156.429 36.0103C156.278 35.8656 156.202 35.6918 156.202 35.4886C156.202 35.2855 156.278 35.1116 156.429 34.967C156.582 34.8223 156.766 34.75 156.978 34.75C157.19 34.75 157.372 34.8223 157.523 34.967C157.677 35.1116 157.753 35.2855 157.753 35.4886C157.753 35.6918 157.677 35.8656 157.523 36.0103C157.372 36.1549 157.19 36.2273 156.978 36.2273ZM160.321 37.4091L162.02 40.3082L163.719 37.4091H164.975L162.685 40.9545L164.975 44.5H163.719L162.02 41.7486L160.321 44.5H159.066L161.319 40.9545L159.066 37.4091H160.321ZM169.21 44.6477C168.527 44.6477 167.938 44.4969 167.442 44.1953C166.95 43.8906 166.57 43.4659 166.302 42.9212C166.037 42.3733 165.905 41.7363 165.905 41.0099C165.905 40.2836 166.037 39.6435 166.302 39.0895C166.57 38.5324 166.942 38.0985 167.419 37.7876C167.899 37.4737 168.459 37.3168 169.1 37.3168C169.469 37.3168 169.834 37.3783 170.194 37.5014C170.554 37.6245 170.882 37.8246 171.177 38.1016C171.472 38.3755 171.708 38.7386 171.883 39.1911C172.059 39.6435 172.146 40.2005 172.146 40.8622V41.3239H166.681V40.3821H171.039C171.039 39.982 170.959 39.625 170.798 39.3111C170.642 38.9972 170.417 38.7494 170.124 38.5678C169.835 38.3862 169.494 38.2955 169.1 38.2955C168.666 38.2955 168.29 38.4032 167.973 38.6186C167.659 38.831 167.418 39.108 167.248 39.4496C167.079 39.7912 166.994 40.1574 166.994 40.5483V41.1761C166.994 41.7116 167.087 42.1656 167.271 42.538C167.459 42.9073 167.719 43.1889 168.052 43.3828C168.384 43.5736 168.77 43.669 169.21 43.669C169.497 43.669 169.755 43.629 169.986 43.549C170.22 43.4659 170.421 43.3428 170.591 43.1797C170.76 43.0135 170.891 42.8073 170.983 42.5611L172.036 42.8565C171.925 43.2135 171.739 43.5275 171.477 43.7983C171.215 44.0661 170.892 44.2753 170.508 44.4261C170.123 44.5739 169.691 44.6477 169.21 44.6477ZM176.481 44.6477C175.89 44.6477 175.369 44.4985 174.916 44.1999C174.464 43.8983 174.11 43.4736 173.855 42.9258C173.599 42.3749 173.471 41.724 173.471 40.973C173.471 40.2282 173.599 39.5819 173.855 39.0341C174.11 38.4863 174.465 38.0631 174.921 37.7646C175.376 37.466 175.903 37.3168 176.5 37.3168C176.961 37.3168 177.326 37.3937 177.594 37.5476C177.865 37.6984 178.071 37.8707 178.213 38.0646C178.357 38.2554 178.47 38.4124 178.55 38.5355H178.642V35.0455H179.731V44.5H178.679V43.4105H178.55C178.47 43.5398 178.356 43.7029 178.208 43.8999C178.06 44.0937 177.849 44.2676 177.575 44.4215C177.302 44.5723 176.937 44.6477 176.481 44.6477ZM176.629 43.669C177.066 43.669 177.435 43.5552 177.737 43.3274C178.039 43.0966 178.268 42.7781 178.425 42.3718C178.582 41.9625 178.66 41.4901 178.66 40.9545C178.66 40.4252 178.583 39.962 178.43 39.565C178.276 39.1649 178.048 38.854 177.746 38.6325C177.445 38.4078 177.072 38.2955 176.629 38.2955C176.167 38.2955 175.783 38.4139 175.475 38.6509C175.17 38.8848 174.941 39.2034 174.787 39.6065C174.636 40.0066 174.561 40.456 174.561 40.9545C174.561 41.4593 174.638 41.9179 174.792 42.3303C174.949 42.7396 175.18 43.0658 175.484 43.3089C175.792 43.549 176.174 43.669 176.629 43.669Z" fill="white"/>
</svg>
