<svg width="215" height="64" viewBox="0 0 215 64" fill="none" xmlns="http://www.w3.org/2000/svg">
<rect y="-4.57764e-05" width="215" height="64" rx="16" fill="#777777"/>
<path d="M25.9849 41V38.9318L32.3833 32.3025C33.0666 31.5823 33.6298 30.9514 34.073 30.4098C34.5223 29.8619 34.8578 29.3418 35.0794 28.8494C35.301 28.357 35.4118 27.8338 35.4118 27.2798C35.4118 26.6519 35.264 26.1103 34.9686 25.6548C34.6731 25.1931 34.2699 24.8392 33.7591 24.593C33.2482 24.3406 32.6726 24.2144 32.0325 24.2144C31.3554 24.2144 30.7645 24.3529 30.2598 24.6299C29.755 24.9069 29.3672 25.2978 29.0964 25.8025C28.8256 26.3072 28.6902 26.8982 28.6902 27.5752H25.9664C25.9664 26.4242 26.2311 25.4178 26.7605 24.5561C27.2898 23.6943 28.0162 23.0265 28.9395 22.5525C29.8627 22.0724 30.9122 21.8323 32.0879 21.8323C33.2759 21.8323 34.3223 22.0693 35.2271 22.5433C36.1381 23.0111 36.849 23.6512 37.3599 24.4637C37.8708 25.2701 38.1262 26.1811 38.1262 27.1967C38.1262 27.8984 37.9939 28.5847 37.7292 29.2556C37.4707 29.9266 37.0183 30.6744 36.372 31.4992C35.7257 32.3179 34.827 33.312 33.676 34.4815L29.9181 38.4147V38.5532H38.4309V41H25.9849ZM48.5133 41.3139C47.0545 41.3077 45.8081 40.923 44.774 40.1598C43.7399 39.3965 42.9489 38.2855 42.4011 36.8267C41.8533 35.3679 41.5794 33.6105 41.5794 31.5546C41.5794 29.5049 41.8533 27.7537 42.4011 26.3011C42.9551 24.8484 43.7491 23.7405 44.7832 22.9772C45.8234 22.214 47.0668 21.8323 48.5133 21.8323C49.9598 21.8323 51.2001 22.217 52.2342 22.9865C53.2683 23.7497 54.0592 24.8577 54.6071 26.3103C55.161 27.7568 55.438 29.5049 55.438 31.5546C55.438 33.6167 55.1641 35.3771 54.6163 36.8359C54.0685 38.2885 53.2775 39.3996 52.2434 40.169C51.2093 40.9322 49.966 41.3139 48.5133 41.3139ZM48.5133 38.8487C49.7936 38.8487 50.7939 38.2239 51.514 36.9744C52.2404 35.7249 52.6035 33.9183 52.6035 31.5546C52.6035 29.985 52.4373 28.6586 52.1049 27.5752C51.7787 26.4857 51.3078 25.6609 50.6923 25.1008C50.0829 24.5345 49.3566 24.2514 48.5133 24.2514C47.2392 24.2514 46.2389 24.8792 45.5126 26.1349C44.7863 27.3906 44.42 29.1972 44.4139 31.5546C44.4139 33.1304 44.577 34.463 44.9032 35.5525C45.2356 36.6358 45.7065 37.4576 46.3159 38.0177C46.9252 38.5717 47.6577 38.8487 48.5133 38.8487ZM65.2965 41.3139C63.8377 41.3077 62.5913 40.923 61.5572 40.1598C60.5231 39.3965 59.7321 38.2855 59.1843 36.8267C58.6365 35.3679 58.3626 33.6105 58.3626 31.5546C58.3626 29.5049 58.6365 27.7537 59.1843 26.3011C59.7383 24.8484 60.5323 23.7405 61.5664 22.9772C62.6067 22.214 63.85 21.8323 65.2965 21.8323C66.743 21.8323 67.9833 22.217 69.0174 22.9865C70.0515 23.7497 70.8424 24.8577 71.3903 26.3103C71.9442 27.7568 72.2212 29.5049 72.2212 31.5546C72.2212 33.6167 71.9473 35.3771 71.3995 36.8359C70.8517 38.2885 70.0607 39.3996 69.0266 40.169C67.9925 40.9322 66.7492 41.3139 65.2965 41.3139ZM65.2965 38.8487C66.5768 38.8487 67.5771 38.2239 68.2972 36.9744C69.0236 35.7249 69.3867 33.9183 69.3867 31.5546C69.3867 29.985 69.2205 28.6586 68.8881 27.5752C68.5619 26.4857 68.091 25.6609 67.4755 25.1008C66.8661 24.5345 66.1398 24.2514 65.2965 24.2514C64.0224 24.2514 63.0221 24.8792 62.2958 26.1349C61.5695 27.3906 61.2032 29.1972 61.1971 31.5546C61.1971 33.1304 61.3602 34.463 61.6864 35.5525C62.0188 36.6358 62.4897 37.4576 63.0991 38.0177C63.7085 38.5717 64.4409 38.8487 65.2965 38.8487ZM75.7551 41V22.0909H78.6081V31.1207H78.839L86.7701 22.0909H90.3617L82.7353 30.6036L90.3894 41H86.9547L80.8425 32.5518L78.6081 35.1186V41H75.7551ZM96.0977 37.8238V25.3409H98.5813V37.8238H96.0977ZM91.1026 32.8196V30.3451H103.586V32.8196H91.1026Z" fill="white"/>
<path d="M115.145 27V17.5454H116.29V21.7556H121.331V17.5454H122.476V27H121.331V22.7713H116.29V27H115.145ZM126.707 27.1661C126.258 27.1661 125.85 27.0815 125.483 26.9122C125.117 26.7399 124.826 26.4921 124.611 26.169C124.396 25.8428 124.288 25.4488 124.288 24.9872C124.288 24.5809 124.368 24.2516 124.528 23.9992C124.688 23.7438 124.902 23.5438 125.17 23.3991C125.437 23.2545 125.733 23.1467 126.056 23.0759C126.382 23.0021 126.71 22.9436 127.039 22.9005C127.47 22.8451 127.819 22.8036 128.087 22.7759C128.358 22.7451 128.555 22.6943 128.678 22.6235C128.804 22.5527 128.867 22.4296 128.867 22.2542V22.2173C128.867 21.7618 128.743 21.4079 128.493 21.1555C128.247 20.9031 127.873 20.7769 127.372 20.7769C126.852 20.7769 126.444 20.8908 126.148 21.1186C125.853 21.3463 125.645 21.5894 125.525 21.848L124.491 21.4786C124.676 21.0478 124.922 20.7123 125.23 20.4723C125.54 20.2291 125.879 20.0598 126.245 19.9644C126.615 19.866 126.978 19.8167 127.335 19.8167C127.562 19.8167 127.824 19.8444 128.119 19.8998C128.418 19.9521 128.706 20.0614 128.983 20.2276C129.263 20.3938 129.495 20.6446 129.68 20.9801C129.865 21.3155 129.957 21.7649 129.957 22.3281V27H128.867V26.0397H128.812C128.738 26.1936 128.615 26.3583 128.443 26.5337C128.27 26.7091 128.041 26.8584 127.755 26.9815C127.469 27.1046 127.119 27.1661 126.707 27.1661ZM126.873 26.1875C127.304 26.1875 127.667 26.1028 127.963 25.9335C128.261 25.7643 128.486 25.5458 128.637 25.278C128.79 25.0103 128.867 24.7286 128.867 24.4332V23.436C128.821 23.4914 128.72 23.5422 128.563 23.5884C128.409 23.6315 128.23 23.6699 128.027 23.7038C127.827 23.7346 127.632 23.7623 127.441 23.7869C127.253 23.8084 127.101 23.8269 126.984 23.8423C126.701 23.8792 126.436 23.9392 126.19 24.0223C125.947 24.1023 125.75 24.2239 125.599 24.387C125.451 24.5471 125.377 24.7656 125.377 25.0426C125.377 25.4211 125.517 25.7073 125.797 25.9012C126.081 26.092 126.439 26.1875 126.873 26.1875ZM131.945 29.659V19.909H132.998V21.0355H133.127C133.207 20.9124 133.318 20.7554 133.46 20.5646C133.604 20.3707 133.81 20.1983 134.078 20.0475C134.349 19.8937 134.715 19.8167 135.177 19.8167C135.774 19.8167 136.3 19.966 136.756 20.2645C137.211 20.563 137.567 20.9862 137.822 21.534C138.078 22.0819 138.205 22.7282 138.205 23.473C138.205 24.2239 138.078 24.8748 137.822 25.4257C137.567 25.9736 137.213 26.3983 136.76 26.6999C136.308 26.9984 135.786 27.1477 135.195 27.1477C134.74 27.1477 134.375 27.0723 134.101 26.9215C133.827 26.7676 133.617 26.5937 133.469 26.3998C133.321 26.2028 133.207 26.0397 133.127 25.9105H133.035V29.659H131.945ZM133.016 23.4545C133.016 23.99 133.095 24.4624 133.252 24.8718C133.409 25.278 133.638 25.5965 133.94 25.8274C134.241 26.0551 134.611 26.169 135.048 26.169C135.503 26.169 135.883 26.049 136.188 25.8089C136.496 25.5658 136.727 25.2395 136.88 24.8302C137.037 24.4178 137.116 23.9592 137.116 23.4545C137.116 22.9559 137.039 22.5066 136.885 22.1065C136.734 21.7033 136.505 21.3848 136.197 21.1509C135.892 20.9139 135.509 20.7954 135.048 20.7954C134.604 20.7954 134.232 20.9077 133.93 21.1324C133.629 21.354 133.401 21.6648 133.247 22.0649C133.093 22.462 133.016 22.9251 133.016 23.4545ZM139.867 29.659V19.909H140.92V21.0355H141.049C141.129 20.9124 141.24 20.7554 141.381 20.5646C141.526 20.3707 141.732 20.1983 142 20.0475C142.271 19.8937 142.637 19.8167 143.099 19.8167C143.696 19.8167 144.222 19.966 144.678 20.2645C145.133 20.563 145.489 20.9862 145.744 21.534C145.999 22.0819 146.127 22.7282 146.127 23.473C146.127 24.2239 145.999 24.8748 145.744 25.4257C145.489 25.9736 145.135 26.3983 144.682 26.6999C144.23 26.9984 143.708 27.1477 143.117 27.1477C142.662 27.1477 142.297 27.0723 142.023 26.9215C141.749 26.7676 141.538 26.5937 141.391 26.3998C141.243 26.2028 141.129 26.0397 141.049 25.9105H140.957V29.659H139.867ZM140.938 23.4545C140.938 23.99 141.017 24.4624 141.174 24.8718C141.331 25.278 141.56 25.5965 141.862 25.8274C142.163 26.0551 142.533 26.169 142.97 26.169C143.425 26.169 143.805 26.049 144.11 25.8089C144.418 25.5658 144.648 25.2395 144.802 24.8302C144.959 24.4178 145.038 23.9592 145.038 23.4545C145.038 22.9559 144.961 22.5066 144.807 22.1065C144.656 21.7033 144.427 21.3848 144.119 21.1509C143.814 20.9139 143.431 20.7954 142.97 20.7954C142.526 20.7954 142.154 20.9077 141.852 21.1324C141.551 21.354 141.323 21.6648 141.169 22.0649C141.015 22.462 140.938 22.9251 140.938 23.4545ZM148.237 29.659C148.052 29.659 147.888 29.6437 147.743 29.6129C147.598 29.5852 147.498 29.5575 147.443 29.5298L147.72 28.5696C147.985 28.6373 148.218 28.6619 148.422 28.6434C148.625 28.625 148.805 28.5342 148.962 28.371C149.122 28.211 149.268 27.9509 149.4 27.5909L149.603 27.0369L146.981 19.909H148.163L150.12 25.5596H150.194L152.152 19.909H153.334L150.324 28.034C150.188 28.4003 150.02 28.7034 149.82 28.9435C149.62 29.1866 149.388 29.3667 149.123 29.4836C148.862 29.6006 148.566 29.659 148.237 29.659ZM122.753 40.5H121.608C121.54 40.1706 121.422 39.8813 121.252 39.6321C121.086 39.3828 120.883 39.1735 120.643 39.0042C120.406 38.8319 120.143 38.7026 119.854 38.6164C119.564 38.5303 119.263 38.4872 118.949 38.4872C118.376 38.4872 117.858 38.6318 117.393 38.9211C116.931 39.2104 116.564 39.6367 116.29 40.1999C116.019 40.7631 115.884 41.454 115.884 42.2727C115.884 43.0913 116.019 43.7823 116.29 44.3455C116.564 44.9087 116.931 45.3349 117.393 45.6242C117.858 45.9135 118.376 46.0582 118.949 46.0582C119.263 46.0582 119.564 46.0151 119.854 45.9289C120.143 45.8428 120.406 45.715 120.643 45.5458C120.883 45.3734 121.086 45.1626 121.252 44.9133C121.422 44.6609 121.54 44.3716 121.608 44.0454H122.753C122.667 44.5286 122.51 44.961 122.282 45.3426C122.054 45.7243 121.771 46.049 121.433 46.3167C121.094 46.5814 120.714 46.783 120.292 46.9215C119.874 47.06 119.426 47.1292 118.949 47.1292C118.143 47.1292 117.425 46.9322 116.798 46.5383C116.17 46.1444 115.676 45.5842 115.316 44.8579C114.956 44.1316 114.776 43.2698 114.776 42.2727C114.776 41.2755 114.956 40.4138 115.316 39.6875C115.676 38.9611 116.17 38.401 116.798 38.0071C117.425 37.6131 118.143 37.4161 118.949 37.4161C119.426 37.4161 119.874 37.4854 120.292 37.6239C120.714 37.7624 121.094 37.9655 121.433 38.2333C121.771 38.4979 122.054 38.8211 122.282 39.2027C122.51 39.5813 122.667 40.0137 122.753 40.5ZM128.924 44.1008V39.909H130.013V47H128.924V45.7997H128.85C128.684 46.1598 128.425 46.466 128.074 46.7183C127.724 46.9676 127.28 47.0923 126.745 47.0923C126.302 47.0923 125.908 46.9953 125.563 46.8014C125.218 46.6045 124.948 46.309 124.751 45.9151C124.554 45.5181 124.455 45.0179 124.455 44.4147V39.909H125.545V44.3409C125.545 44.8579 125.689 45.2703 125.979 45.5781C126.271 45.8858 126.643 46.0397 127.096 46.0397C127.367 46.0397 127.642 45.9705 127.922 45.832C128.205 45.6935 128.442 45.4811 128.633 45.1949C128.827 44.9087 128.924 44.544 128.924 44.1008ZM137.032 41.4971L136.053 41.7741C135.991 41.611 135.901 41.4525 135.781 41.2986C135.664 41.1416 135.504 41.0124 135.3 40.9108C135.097 40.8093 134.837 40.7585 134.52 40.7585C134.086 40.7585 133.725 40.8585 133.435 41.0585C133.149 41.2555 133.006 41.5063 133.006 41.811C133.006 42.0819 133.105 42.2958 133.301 42.4527C133.498 42.6097 133.806 42.7405 134.225 42.8451L135.277 43.1036C135.911 43.2575 136.384 43.493 136.695 43.81C137.005 44.1239 137.161 44.5286 137.161 45.0241C137.161 45.4304 137.044 45.7935 136.81 46.1136C136.579 46.4337 136.256 46.686 135.841 46.8707C135.425 47.0554 134.942 47.1477 134.391 47.1477C133.668 47.1477 133.069 46.9907 132.595 46.6768C132.121 46.3629 131.821 45.9043 131.695 45.3011L132.729 45.0426C132.828 45.4242 133.014 45.7104 133.288 45.9012C133.565 46.092 133.926 46.1875 134.373 46.1875C134.88 46.1875 135.283 46.0797 135.582 45.8643C135.884 45.6458 136.034 45.3842 136.034 45.0795C136.034 44.8333 135.948 44.6271 135.776 44.4609C135.604 44.2916 135.339 44.1654 134.982 44.0823L133.8 43.8054C133.151 43.6515 132.674 43.413 132.369 43.0898C132.067 42.7636 131.917 42.3558 131.917 41.8664C131.917 41.4663 132.029 41.1124 132.254 40.8046C132.481 40.4969 132.791 40.2553 133.181 40.0799C133.575 39.9044 134.022 39.8167 134.52 39.8167C135.222 39.8167 135.773 39.9706 136.173 40.2784C136.576 40.5861 136.862 40.9924 137.032 41.4971ZM141.885 39.909V40.8323H138.21V39.909H141.885ZM139.281 38.2102H140.37V44.9687C140.37 45.2765 140.415 45.5073 140.504 45.6612C140.597 45.812 140.714 45.9135 140.855 45.9659C141 46.0151 141.152 46.0397 141.312 46.0397C141.432 46.0397 141.531 46.0336 141.608 46.0213C141.685 46.0059 141.746 45.9936 141.792 45.9843L142.014 46.963C141.94 46.9907 141.837 47.0184 141.705 47.0461C141.572 47.0769 141.405 47.0923 141.201 47.0923C140.894 47.0923 140.592 47.0261 140.297 46.8938C140.004 46.7614 139.761 46.5599 139.567 46.289C139.376 46.0182 139.281 45.6766 139.281 45.2642V38.2102ZM146.328 47.1477C145.688 47.1477 145.126 46.9953 144.643 46.6907C144.163 46.386 143.787 45.9597 143.517 45.4119C143.249 44.8641 143.115 44.2239 143.115 43.4914C143.115 42.7528 143.249 42.108 143.517 41.5571C143.787 41.0062 144.163 40.5784 144.643 40.2737C145.126 39.9691 145.688 39.8167 146.328 39.8167C146.968 39.8167 147.528 39.9691 148.008 40.2737C148.492 40.5784 148.867 41.0062 149.135 41.5571C149.406 42.108 149.541 42.7528 149.541 43.4914C149.541 44.2239 149.406 44.8641 149.135 45.4119C148.867 45.9597 148.492 46.386 148.008 46.6907C147.528 46.9953 146.968 47.1477 146.328 47.1477ZM146.328 46.169C146.814 46.169 147.214 46.0443 147.528 45.7951C147.842 45.5458 148.075 45.218 148.225 44.8117C148.376 44.4055 148.452 43.9654 148.452 43.4914C148.452 43.0175 148.376 42.5758 148.225 42.1665C148.075 41.7572 147.842 41.4263 147.528 41.174C147.214 40.9216 146.814 40.7954 146.328 40.7954C145.842 40.7954 145.442 40.9216 145.128 41.174C144.814 41.4263 144.581 41.7572 144.431 42.1665C144.28 42.5758 144.204 43.0175 144.204 43.4914C144.204 43.9654 144.28 44.4055 144.431 44.8117C144.581 45.218 144.814 45.5458 145.128 45.7951C145.442 46.0443 145.842 46.169 146.328 46.169ZM151.204 47V39.909H152.257V41.017H152.349C152.497 40.6384 152.735 40.3445 153.065 40.1353C153.394 39.9229 153.789 39.8167 154.251 39.8167C154.719 39.8167 155.108 39.9229 155.419 40.1353C155.733 40.3445 155.978 40.6384 156.153 41.017H156.227C156.408 40.6508 156.681 40.3599 157.044 40.1445C157.407 39.926 157.843 39.8167 158.35 39.8167C158.984 39.8167 159.503 40.0152 159.906 40.4122C160.309 40.8062 160.511 41.4202 160.511 42.2542V47H159.422V42.2542C159.422 41.731 159.278 41.3571 158.992 41.1324C158.706 40.9077 158.369 40.7954 157.981 40.7954C157.483 40.7954 157.096 40.9462 156.822 41.2478C156.549 41.5464 156.412 41.9249 156.412 42.3835V47H155.304V42.1434C155.304 41.7402 155.173 41.4156 154.911 41.1693C154.65 40.9201 154.313 40.7954 153.9 40.7954C153.617 40.7954 153.352 40.8708 153.106 41.0216C152.863 41.1724 152.666 41.3817 152.515 41.6495C152.368 41.9141 152.294 42.2204 152.294 42.5681V47H151.204ZM165.476 47.1477C164.793 47.1477 164.203 46.9969 163.708 46.6953C163.215 46.3906 162.835 45.9659 162.568 45.4211C162.303 44.8733 162.171 44.2362 162.171 43.5099C162.171 42.7836 162.303 42.1434 162.568 41.5894C162.835 41.0324 163.208 40.5984 163.685 40.2876C164.165 39.9737 164.725 39.8167 165.365 39.8167C165.735 39.8167 166.099 39.8783 166.459 40.0014C166.819 40.1245 167.147 40.3245 167.443 40.6015C167.738 40.8754 167.974 41.2386 168.149 41.691C168.324 42.1434 168.412 42.7005 168.412 43.3622V43.8238H162.946V42.8821H167.304C167.304 42.482 167.224 42.125 167.064 41.811C166.907 41.4971 166.682 41.2494 166.39 41.0678C166.101 40.8862 165.759 40.7954 165.365 40.7954C164.931 40.7954 164.556 40.9031 164.239 41.1186C163.925 41.3309 163.683 41.6079 163.514 41.9495C163.345 42.2911 163.26 42.6574 163.26 43.0482V43.6761C163.26 44.2116 163.352 44.6656 163.537 45.038C163.725 45.4073 163.985 45.6889 164.317 45.8828C164.65 46.0736 165.036 46.169 165.476 46.169C165.762 46.169 166.021 46.129 166.252 46.049C166.485 45.9659 166.687 45.8428 166.856 45.6796C167.026 45.5134 167.156 45.3072 167.249 45.061L168.301 45.3565C168.191 45.7135 168.004 46.0274 167.743 46.2982C167.481 46.566 167.158 46.7753 166.773 46.9261C166.389 47.0738 165.956 47.1477 165.476 47.1477ZM170.069 47V39.909H171.122V40.9801H171.196C171.325 40.6292 171.559 40.3445 171.898 40.126C172.236 39.9075 172.618 39.7982 173.042 39.7982C173.122 39.7982 173.222 39.7998 173.343 39.8029C173.463 39.8059 173.553 39.8106 173.615 39.8167V40.9247C173.578 40.9154 173.493 40.9016 173.361 40.8831C173.232 40.8616 173.095 40.8508 172.95 40.8508C172.605 40.8508 172.298 40.9231 172.027 41.0678C171.759 41.2094 171.547 41.4063 171.39 41.6587C171.236 41.908 171.159 42.1927 171.159 42.5127V47H170.069Z" fill="white"/>
</svg>
