<svg width="198" height="158" viewBox="0 0 198 158" fill="none" xmlns="http://www.w3.org/2000/svg">
<rect x="12.8977" y="12.1494" width="185.102" height="145.851" rx="26.0324" fill="#516EFF"/>
<rect y="0.712402" width="188.078" height="148.248" rx="19.5348" fill="white"/>
<circle cx="163.706" cy="26.5228" r="3.95424" fill="#777777"/>
<circle cx="24.3725" cy="26.5228" r="3.95424" fill="#777777"/>
<rect x="38.105" y="34.7908" width="111.438" height="1.15033" rx="0.575163" fill="#777777"/>
<rect x="76.4966" y="23.1436" width="35.0849" height="5.60784" rx="2.80392" fill="#777777"/>
<rect x="38.105" y="24.294" width="33.0719" height="4.45751" rx="2.22876" fill="#777777"/>
<rect x="118.052" y="24.294" width="33.0719" height="4.45751" rx="2.22876" fill="#777777"/>
<circle cx="42.1068" cy="70.651" r="3.32924" fill="#777777"/>
<circle cx="42.1068" cy="83.9681" r="3.32924" fill="#777777"/>
<circle cx="42.1068" cy="97.2851" r="3.32924" fill="#777777"/>
<circle cx="42.1068" cy="110.602" r="3.32924" fill="#777777"/>
<circle cx="42.1068" cy="123.919" r="3.32924" fill="#777777"/>
<circle cx="59.5402" cy="70.651" r="3.32924" fill="#777777"/>
<circle cx="59.53" cy="83.967" r="7.49875" fill="#777777" stroke="white" stroke-width="6.37006"/>
<circle cx="77.0723" cy="97.3395" r="7.49875" fill="#777777" stroke="white" stroke-width="6.37006"/>
<circle cx="59.5402" cy="97.2851" r="3.32924" fill="#777777"/>
<circle cx="59.5402" cy="110.602" r="3.32924" fill="#777777"/>
<circle cx="59.5402" cy="123.919" r="3.32924" fill="#777777"/>
<circle cx="76.9733" cy="70.651" r="3.32924" fill="#777777"/>
<circle cx="76.9733" cy="83.9681" r="3.32924" fill="#777777"/>
<circle cx="76.9733" cy="110.602" r="3.32924" fill="#777777"/>
<circle cx="94.4066" cy="70.651" r="3.32924" fill="#777777"/>
<circle cx="94.4066" cy="83.9681" r="3.32924" fill="#777777"/>
<circle cx="94.4066" cy="97.2851" r="3.32924" fill="#777777"/>
<circle cx="94.4066" cy="110.602" r="3.32924" fill="#777777"/>
<circle cx="111.839" cy="70.651" r="3.32924" fill="#777777"/>
<circle cx="111.839" cy="83.9681" r="3.32924" fill="#777777"/>
<circle cx="111.839" cy="97.2851" r="3.32924" fill="#777777"/>
<circle cx="111.839" cy="110.602" r="3.32924" fill="#777777"/>
<circle cx="129.272" cy="70.651" r="3.32924" fill="#777777"/>
<circle cx="129.272" cy="83.9681" r="3.32924" fill="#777777"/>
<circle cx="129.272" cy="97.2851" r="3.32924" fill="#777777"/>
<circle cx="129.272" cy="110.602" r="3.32924" fill="#777777"/>
<circle cx="146.706" cy="70.651" r="3.32924" fill="#777777"/>
<circle cx="146.706" cy="83.9681" r="3.32924" fill="#777777"/>
<circle cx="146.706" cy="97.2851" r="3.32924" fill="#777777"/>
<circle cx="146.706" cy="110.602" r="3.32924" fill="#777777"/>
<circle cx="42.1671" cy="54.2471" r="4.35828" fill="#777777"/>
<circle cx="59.6002" cy="54.2469" r="4.35828" fill="#777777"/>
<circle cx="77.0333" cy="54.2469" r="4.35828" fill="#777777"/>
<circle cx="94.4667" cy="54.2469" r="4.35828" fill="#777777"/>
<circle cx="111.899" cy="54.2469" r="4.35828" fill="#777777"/>
<circle cx="129.333" cy="54.2469" r="4.35828" fill="#777777"/>
<circle cx="146.766" cy="54.2469" r="4.35828" fill="#777777"/>
<rect x="72.3269" y="34.3595" width="43.081" height="2.01307" rx="1.00653" fill="#777777"/>
</svg>
