<svg width="154" height="59" viewBox="0 0 154 59" fill="none" xmlns="http://www.w3.org/2000/svg">
<rect width="154" height="59" rx="16" fill="#FFE766"/>
<path d="M36.402 38.7585C35.134 38.7585 34.0014 38.54 33.0043 38.103C32.0133 37.666 31.2285 37.0597 30.6499 36.2841C30.0774 35.5024 29.7696 34.5975 29.7266 33.5696H32.6257C32.6626 34.1297 32.8504 34.616 33.1889 35.0284C33.5336 35.4347 33.983 35.7486 34.5369 35.9702C35.0909 36.1918 35.7064 36.3026 36.3835 36.3026C37.1283 36.3026 37.7869 36.1733 38.3594 35.9148C38.938 35.6562 39.3904 35.2962 39.7166 34.8345C40.0429 34.3667 40.206 33.8281 40.206 33.2188C40.206 32.5848 40.0429 32.0277 39.7166 31.5476C39.3965 31.0613 38.9257 30.6797 38.304 30.4027C37.6884 30.1257 36.9437 29.9872 36.0696 29.9872H34.4723V27.6605H36.0696C36.7713 27.6605 37.3868 27.5343 37.9162 27.282C38.4517 27.0296 38.8703 26.6787 39.1719 26.2294C39.4735 25.7739 39.6243 25.2415 39.6243 24.6321C39.6243 24.0473 39.492 23.5395 39.2273 23.1087C38.9688 22.6716 38.5994 22.33 38.1193 22.0838C37.6454 21.8376 37.0852 21.7145 36.4389 21.7145C35.8234 21.7145 35.2479 21.8284 34.7124 22.0561C34.183 22.2777 33.7521 22.5978 33.4197 23.0163C33.0874 23.4287 32.9089 23.9242 32.8842 24.5028H30.1236C30.1544 23.4811 30.456 22.5824 31.0284 21.8068C31.607 21.0312 32.3703 20.425 33.3182 19.9879C34.2661 19.5509 35.3187 19.3324 36.4759 19.3324C37.6884 19.3324 38.7348 19.5694 39.6151 20.0433C40.5014 20.5111 41.1847 21.1359 41.6648 21.9176C42.151 22.6993 42.3911 23.5549 42.3849 24.4844C42.3911 25.5431 42.0956 26.4418 41.4986 27.1804C40.9077 27.919 40.1198 28.4145 39.1349 28.6669V28.8146C40.3906 29.0054 41.3632 29.504 42.0526 30.3104C42.7481 31.1167 43.0928 32.117 43.0866 33.3111C43.0928 34.3513 42.8035 35.2839 42.2188 36.1087C41.6402 36.9335 40.8492 37.5829 39.8459 38.0568C38.8426 38.5246 37.6946 38.7585 36.402 38.7585ZM53.1598 38.8139C51.701 38.8078 50.4545 38.4231 49.4205 37.6598C48.3864 36.8965 47.5954 35.7855 47.0476 34.3267C46.4998 32.8679 46.2259 31.1106 46.2259 29.0547C46.2259 27.005 46.4998 25.2538 47.0476 23.8011C47.6016 22.3485 48.3956 21.2405 49.4297 20.4773C50.4699 19.714 51.7133 19.3324 53.1598 19.3324C54.6063 19.3324 55.8466 19.7171 56.8807 20.4865C57.9148 21.2498 58.7057 22.3577 59.2536 23.8104C59.8075 25.2569 60.0845 27.005 60.0845 29.0547C60.0845 31.1167 59.8106 32.8771 59.2628 34.3359C58.715 35.7886 57.924 36.8996 56.8899 37.669C55.8558 38.4323 54.6125 38.8139 53.1598 38.8139ZM53.1598 36.3487C54.4401 36.3487 55.4403 35.724 56.1605 34.4744C56.8868 33.2249 57.25 31.4183 57.25 29.0547C57.25 27.4851 57.0838 26.1586 56.7514 25.0753C56.4252 23.9858 55.9543 23.161 55.3388 22.6009C54.7294 22.0346 54.0031 21.7514 53.1598 21.7514C51.8857 21.7514 50.8854 22.3793 50.1591 23.6349C49.4328 24.8906 49.0665 26.6972 49.0604 29.0547C49.0604 30.6304 49.2235 31.9631 49.5497 33.0526C49.8821 34.1359 50.353 34.9576 50.9624 35.5178C51.5717 36.0717 52.3042 36.3487 53.1598 36.3487ZM68.9551 35.3239V22.8409H71.4387V35.3239H68.9551ZM63.96 30.3196V27.8452H76.443V30.3196H63.96Z" fill="white"/>
<path d="M88.1449 24.5V15.0455H93.8509V16.0611H89.2898V19.2557H93.5554V20.2713H89.2898V23.4844H93.9247V24.5H88.1449ZM96.5792 17.4091L98.2781 20.3082L99.9769 17.4091H101.233L98.9428 20.9545L101.233 24.5H99.9769L98.2781 21.7486L96.5792 24.5H95.3235L97.5763 20.9545L95.3235 17.4091H96.5792ZM102.787 27.1591V17.4091H103.84V18.5355H103.969C104.049 18.4124 104.16 18.2554 104.301 18.0646C104.446 17.8707 104.652 17.6984 104.92 17.5476C105.191 17.3937 105.557 17.3168 106.019 17.3168C106.616 17.3168 107.142 17.466 107.598 17.7646C108.053 18.0631 108.409 18.4863 108.664 19.0341C108.919 19.5819 109.047 20.2282 109.047 20.973C109.047 21.724 108.919 22.3749 108.664 22.9258C108.409 23.4736 108.055 23.8983 107.602 24.1999C107.15 24.4985 106.628 24.6477 106.037 24.6477C105.582 24.6477 105.217 24.5723 104.943 24.4215C104.669 24.2676 104.458 24.0937 104.311 23.8999C104.163 23.7029 104.049 23.5398 103.969 23.4105H103.877V27.1591H102.787ZM103.858 20.9545C103.858 21.4901 103.937 21.9625 104.094 22.3718C104.251 22.7781 104.48 23.0966 104.782 23.3274C105.083 23.5552 105.452 23.669 105.889 23.669C106.345 23.669 106.725 23.549 107.03 23.3089C107.338 23.0658 107.568 22.7396 107.722 22.3303C107.879 21.9179 107.958 21.4593 107.958 20.9545C107.958 20.456 107.881 20.0066 107.727 19.6065C107.576 19.2034 107.347 18.8848 107.039 18.6509C106.734 18.4139 106.351 18.2955 105.889 18.2955C105.446 18.2955 105.074 18.4078 104.772 18.6325C104.471 18.854 104.243 19.1649 104.089 19.565C103.935 19.962 103.858 20.4252 103.858 20.9545ZM113.682 24.6477C112.999 24.6477 112.409 24.4969 111.914 24.1953C111.422 23.8906 111.041 23.4659 110.774 22.9212C110.509 22.3733 110.377 21.7363 110.377 21.0099C110.377 20.2836 110.509 19.6435 110.774 19.0895C111.041 18.5324 111.414 18.0985 111.891 17.7876C112.371 17.4737 112.931 17.3168 113.571 17.3168C113.941 17.3168 114.305 17.3783 114.665 17.5014C115.025 17.6245 115.353 17.8246 115.649 18.1016C115.944 18.3755 116.18 18.7386 116.355 19.1911C116.53 19.6435 116.618 20.2005 116.618 20.8622V21.3239H111.152V20.3821H115.51C115.51 19.982 115.43 19.625 115.27 19.3111C115.113 18.9972 114.889 18.7494 114.596 18.5678C114.307 18.3862 113.965 18.2955 113.571 18.2955C113.137 18.2955 112.762 18.4032 112.445 18.6186C112.131 18.831 111.889 19.108 111.72 19.4496C111.551 19.7912 111.466 20.1574 111.466 20.5483V21.1761C111.466 21.7116 111.559 22.1656 111.743 22.538C111.931 22.9073 112.191 23.1889 112.523 23.3828C112.856 23.5736 113.242 23.669 113.682 23.669C113.968 23.669 114.227 23.629 114.458 23.549C114.692 23.4659 114.893 23.3428 115.062 23.1797C115.232 23.0135 115.362 22.8073 115.455 22.5611L116.507 22.8565C116.397 23.2135 116.21 23.5275 115.949 23.7983C115.687 24.0661 115.364 24.2753 114.979 24.4261C114.595 24.5739 114.162 24.6477 113.682 24.6477ZM118.275 24.5V17.4091H119.328V18.4801H119.402C119.531 18.1293 119.765 17.8446 120.104 17.6261C120.442 17.4076 120.824 17.2983 121.248 17.2983C121.329 17.2983 121.429 17.2998 121.549 17.3029C121.669 17.306 121.759 17.3106 121.821 17.3168V18.4247C121.784 18.4155 121.699 18.4016 121.567 18.3832C121.438 18.3616 121.301 18.3509 121.156 18.3509C120.811 18.3509 120.504 18.4232 120.233 18.5678C119.965 18.7094 119.753 18.9064 119.596 19.1587C119.442 19.408 119.365 19.6927 119.365 20.0128V24.5H118.275ZM126.641 17.4091V18.3324H122.966V17.4091H126.641ZM124.037 15.7102H125.126V22.4688C125.126 22.7765 125.171 23.0073 125.26 23.1612C125.353 23.312 125.469 23.4136 125.611 23.4659C125.756 23.5152 125.908 23.5398 126.068 23.5398C126.188 23.5398 126.287 23.5336 126.364 23.5213C126.44 23.5059 126.502 23.4936 126.548 23.4844L126.77 24.4631C126.696 24.4908 126.593 24.5185 126.46 24.5462C126.328 24.5769 126.16 24.5923 125.957 24.5923C125.65 24.5923 125.348 24.5262 125.052 24.3938C124.76 24.2615 124.517 24.0599 124.323 23.7891C124.132 23.5182 124.037 23.1766 124.037 22.7642V15.7102ZM91.0625 44.5H88.1449V35.0455H91.1918C92.1089 35.0455 92.8937 35.2347 93.5462 35.6133C94.1986 35.9888 94.6987 36.5289 95.0465 37.2337C95.3943 37.9354 95.5682 38.7756 95.5682 39.7543C95.5682 40.7391 95.3928 41.587 95.0419 42.2979C94.6911 43.0058 94.1802 43.5505 93.5092 43.9322C92.8383 44.3107 92.0227 44.5 91.0625 44.5ZM89.2898 43.4844H90.9886C91.7704 43.4844 92.4182 43.3336 92.9322 43.032C93.4461 42.7304 93.8293 42.301 94.0817 41.744C94.334 41.1869 94.4602 40.5237 94.4602 39.7543C94.4602 38.991 94.3356 38.3339 94.0863 37.783C93.837 37.229 93.4646 36.8043 92.9691 36.5089C92.4736 36.2103 91.8565 36.0611 91.1179 36.0611H89.2898V43.4844ZM100.314 44.6477C99.6307 44.6477 99.0413 44.4969 98.5458 44.1953C98.0534 43.8906 97.6733 43.4659 97.4055 42.9212C97.1409 42.3733 97.0085 41.7363 97.0085 41.0099C97.0085 40.2836 97.1409 39.6435 97.4055 39.0895C97.6733 38.5324 98.0457 38.0985 98.5227 37.7876C99.0028 37.4737 99.563 37.3168 100.203 37.3168C100.572 37.3168 100.937 37.3783 101.297 37.5014C101.657 37.6245 101.985 37.8246 102.281 38.1016C102.576 38.3755 102.811 38.7386 102.987 39.1911C103.162 39.6435 103.25 40.2005 103.25 40.8622V41.3239H97.7841V40.3821H102.142C102.142 39.982 102.062 39.625 101.902 39.3111C101.745 38.9972 101.52 38.7494 101.228 38.5678C100.939 38.3862 100.597 38.2955 100.203 38.2955C99.7692 38.2955 99.3937 38.4032 99.0767 38.6186C98.7628 38.831 98.5212 39.108 98.3519 39.4496C98.1826 39.7912 98.098 40.1574 98.098 40.5483V41.1761C98.098 41.7116 98.1903 42.1656 98.375 42.538C98.5627 42.9073 98.8228 43.1889 99.1552 43.3828C99.4876 43.5736 99.8738 43.669 100.314 43.669C100.6 43.669 100.859 43.629 101.089 43.549C101.323 43.4659 101.525 43.3428 101.694 43.1797C101.864 43.0135 101.994 42.8073 102.087 42.5611L103.139 42.8565C103.028 43.2135 102.842 43.5275 102.581 43.7983C102.319 44.0661 101.996 44.2753 101.611 44.4261C101.226 44.5739 100.794 44.6477 100.314 44.6477ZM105.997 40.2344V44.5H104.907V37.4091H105.96V38.517H106.052C106.218 38.157 106.471 37.8677 106.809 37.6491C107.148 37.4276 107.585 37.3168 108.12 37.3168C108.6 37.3168 109.021 37.4152 109.381 37.6122C109.741 37.8061 110.021 38.1016 110.221 38.4986C110.421 38.8925 110.521 39.3911 110.521 39.9943V44.5H109.431V40.0682C109.431 39.5111 109.287 39.0772 108.998 38.7663C108.708 38.4524 108.311 38.2955 107.806 38.2955C107.459 38.2955 107.148 38.3709 106.874 38.5217C106.603 38.6725 106.389 38.8925 106.232 39.1818C106.075 39.4711 105.997 39.822 105.997 40.2344ZM115.596 37.4091V38.3324H111.921V37.4091H115.596ZM112.992 35.7102H114.081V42.4688C114.081 42.7765 114.126 43.0073 114.215 43.1612C114.308 43.312 114.425 43.4136 114.566 43.4659C114.711 43.5152 114.863 43.5398 115.023 43.5398C115.143 43.5398 115.242 43.5336 115.319 43.5213C115.396 43.5059 115.457 43.4936 115.503 43.4844L115.725 44.4631C115.651 44.4908 115.548 44.5185 115.416 44.5462C115.283 44.5769 115.116 44.5923 114.912 44.5923C114.605 44.5923 114.303 44.5262 114.008 44.3938C113.715 44.2615 113.472 44.0599 113.278 43.7891C113.087 43.5182 112.992 43.1766 112.992 42.7642V35.7102ZM117.234 44.5V37.4091H118.324V44.5H117.234ZM117.788 36.2273C117.576 36.2273 117.393 36.1549 117.239 36.0103C117.088 35.8656 117.013 35.6918 117.013 35.4886C117.013 35.2855 117.088 35.1116 117.239 34.967C117.393 34.8223 117.576 34.75 117.788 34.75C118.001 34.75 118.182 34.8223 118.333 34.967C118.487 35.1116 118.564 35.2855 118.564 35.4886C118.564 35.6918 118.487 35.8656 118.333 36.0103C118.182 36.1549 118.001 36.2273 117.788 36.2273ZM125.342 38.9972L124.363 39.2741C124.302 39.111 124.211 38.9525 124.091 38.7987C123.974 38.6417 123.814 38.5124 123.611 38.4109C123.408 38.3093 123.148 38.2585 122.831 38.2585C122.397 38.2585 122.035 38.3585 121.746 38.5586C121.46 38.7556 121.317 39.0064 121.317 39.3111C121.317 39.5819 121.415 39.7958 121.612 39.9528C121.809 40.1097 122.117 40.2405 122.535 40.3452L123.588 40.6037C124.222 40.7576 124.694 40.993 125.005 41.31C125.316 41.6239 125.471 42.0286 125.471 42.5241C125.471 42.9304 125.354 43.2936 125.121 43.6136C124.89 43.9337 124.567 44.1861 124.151 44.3707C123.736 44.5554 123.252 44.6477 122.702 44.6477C121.978 44.6477 121.38 44.4908 120.906 44.1768C120.432 43.8629 120.132 43.4044 120.006 42.8011L121.04 42.5426C121.138 42.9242 121.324 43.2105 121.598 43.4013C121.875 43.5921 122.237 43.6875 122.683 43.6875C123.191 43.6875 123.594 43.5798 123.893 43.3643C124.194 43.1458 124.345 42.8842 124.345 42.5795C124.345 42.3333 124.259 42.1271 124.086 41.9609C123.914 41.7917 123.649 41.6655 123.292 41.5824L122.111 41.3054C121.461 41.1515 120.984 40.913 120.68 40.5898C120.378 40.2636 120.227 39.8558 120.227 39.3665C120.227 38.9664 120.339 38.6125 120.564 38.3047C120.792 37.9969 121.101 37.7553 121.492 37.5799C121.886 37.4045 122.332 37.3168 122.831 37.3168C123.532 37.3168 124.083 37.4706 124.483 37.7784C124.887 38.0862 125.173 38.4924 125.342 38.9972ZM130.195 37.4091V38.3324H126.521V37.4091H130.195ZM127.592 35.7102H128.681V42.4688C128.681 42.7765 128.726 43.0073 128.815 43.1612C128.907 43.312 129.024 43.4136 129.166 43.4659C129.31 43.5152 129.463 43.5398 129.623 43.5398C129.743 43.5398 129.841 43.5336 129.918 43.5213C129.995 43.5059 130.057 43.4936 130.103 43.4844L130.324 44.4631C130.251 44.4908 130.148 44.5185 130.015 44.5462C129.883 44.5769 129.715 44.5923 129.512 44.5923C129.204 44.5923 128.903 44.5262 128.607 44.3938C128.315 44.2615 128.072 44.0599 127.878 43.7891C127.687 43.5182 127.592 43.1766 127.592 42.7642V35.7102Z" fill="white"/>
</svg>
