<svg width="48" height="44" viewBox="0 0 48 44" fill="none" xmlns="http://www.w3.org/2000/svg">
<path d="M34.6859 21.5869C34.729 15.6408 29.9893 10.6426 24.0001 10.3841C21.5441 10.2548 19.2174 10.9873 17.3215 12.2368C15.4257 10.9873 13.0989 10.2548 10.6429 10.3841C4.73993 10.5995 -0.0427988 15.5977 0.000288864 21.5869C0.000288864 23.4827 0.991305 27.0159 3.53348 28.3516C3.4473 30.3337 3.05951 37.0123 7.28211 41.7088C8.96253 43.6047 11.9356 43.6478 13.6591 41.795C14.3054 41.1056 14.8655 40.1577 15.1241 38.9512C15.4257 37.7017 15.7273 35.8489 15.9858 33.8669C16.2013 32.3157 18.4418 32.3157 18.6573 33.8669C18.9589 35.8058 19.2605 37.6586 19.519 38.9512C19.7775 40.2007 20.3377 41.1056 20.984 41.795C22.7075 43.6478 25.6805 43.6047 27.361 41.7088C31.5836 37.0553 31.1958 30.3337 31.1096 28.3516C33.6087 27.1452 34.6859 23.4827 34.6859 21.5869ZM6.9374 15.4253C6.11874 16.1147 5.42934 16.9334 4.8692 17.8813C4.09362 19.2601 3.66274 20.8113 3.66274 22.3624C3.66274 22.8364 3.27495 23.2242 2.7579 23.2242C2.24085 23.2242 1.85306 22.8364 1.85306 22.3194C1.85306 20.4666 2.37011 18.5707 3.27495 16.9765C3.92127 15.8562 4.73993 14.8652 5.73095 14.0034C6.11874 13.7018 6.67888 13.7449 6.98049 14.1327C7.36828 14.5636 7.32519 15.1237 6.9374 15.4253ZM8.87635 14.0465L8.704 14.1327C8.57474 14.2189 8.44547 14.2189 8.27312 14.2189C7.97151 14.2189 7.62681 14.0465 7.49754 13.7449C7.28211 13.314 7.45446 12.7539 7.88533 12.5385L8.05768 12.4523C8.48856 12.2368 9.0487 12.4092 9.26414 12.8401C9.47958 13.2709 9.30723 13.8311 8.87635 14.0465Z" fill="#516EFF"/>
<path d="M26.37 0C19.3036 0 13.0128 3.40393 9.0918 8.61753C9.56576 8.53136 10.0828 8.48827 10.5999 8.44518C10.7722 8.44518 10.9877 8.44518 11.16 8.44518C11.6771 8.44518 12.1941 8.48827 12.7112 8.53136C12.7973 8.44518 12.9266 8.31592 13.0128 8.22974C16.5891 4.65347 21.3287 2.71452 26.37 2.71452C28.3951 2.71452 30.3771 3.01614 32.273 3.66245C32.6177 3.66245 34.729 3.66245 34.729 3.66245C34.729 3.66245 34.729 1.76659 34.729 1.68042C32.1868 0.603227 29.343 0 26.37 0Z" fill="#516EFF"/>
<path d="M46.1472 12.8401C45.3716 12.8401 44.0359 12.8401 44.0359 12.8401C44.0359 12.8401 44.0359 14.6498 44.0359 14.9083C44.8114 17.0196 45.2423 19.2602 45.2423 21.5438C45.2423 26.5851 43.2603 31.3247 39.7271 34.901C37.2711 37.357 34.2119 39.0805 30.9372 39.8561C30.3771 40.9333 29.6877 41.9674 28.7828 42.9153C28.7397 42.9584 28.6967 43.0015 28.6967 43.0446C39.5548 41.8812 47.9999 32.7035 47.9999 21.5869C47.9568 18.4846 47.3105 15.5116 46.1472 12.8401Z" fill="#516EFF"/>
<path d="M45.6301 5.42905H42.1831V1.98203C42.1831 1.33572 41.666 0.818665 41.0197 0.818665H37.7451C37.0987 0.818665 36.5817 1.33572 36.5817 1.98203V5.42905H33.1347C32.4884 5.42905 31.9713 5.9461 31.9713 6.59241V9.86708C31.9713 10.5134 32.4884 11.0304 33.1347 11.0304H36.5817V14.4775C36.5817 15.1238 37.0987 15.6408 37.7451 15.6408H41.0197C41.666 15.6408 42.1831 15.1238 42.1831 14.4775V11.0304H45.6301C46.2764 11.0304 46.7935 10.5134 46.7935 9.86708V6.59241C46.7935 5.9461 46.2764 5.42905 45.6301 5.42905ZM38.4345 4.95508C38.4345 5.2567 38.219 5.47213 37.9174 5.47213C37.6158 5.47213 37.4004 5.2567 37.4004 4.95508V3.70554C37.4004 3.40393 37.6158 3.18849 37.9174 3.18849C38.219 3.18849 38.4345 3.40393 38.4345 3.70554V4.95508ZM38.4345 2.19747C38.4345 2.456 38.219 2.71452 37.9174 2.71452C37.6158 2.71452 37.4004 2.49908 37.4004 2.19747V2.06821C37.4004 1.76659 37.6158 1.55116 37.9174 1.55116C38.219 1.55116 38.4345 1.76659 38.4345 2.06821V2.19747Z" fill="#516EFF"/>
</svg>
