<svg width="14" height="15" viewBox="0 0 14 15" fill="none" xmlns="http://www.w3.org/2000/svg">
<path d="M8.89575 5.37055L6.14575 8.28424L4.77075 6.82739M12.3333 3.33092V6.21902C12.3333 11.0035 8.91771 13.1485 7.46973 13.843C7.31622 13.9166 7.23997 13.9534 7.06622 13.985C6.95663 14.005 6.71038 14.005 6.60079 13.985C6.42704 13.9534 6.3501 13.9166 6.19659 13.843C4.74861 13.1485 1.33325 11.0035 1.33325 6.21901V3.33092C1.33325 2.51501 1.33325 2.10711 1.48312 1.79547C1.61494 1.52135 1.82514 1.29846 2.08386 1.15879C2.37799 1 2.76331 1 3.53339 1H10.1334C10.9035 1 11.2882 1 11.5824 1.15879C11.8411 1.29846 12.0517 1.52135 12.1835 1.79547C12.3334 2.10711 12.3333 2.51501 12.3333 3.33092Z" stroke="#18181B" stroke-width="2" stroke-linecap="round" stroke-linejoin="round"/>
</svg>
