<svg width="36" height="40" viewBox="0 0 36 40" fill="none" xmlns="http://www.w3.org/2000/svg">
<path d="M2 12.5C1.17157 12.5 0.5 13.1716 0.5 14C0.5 14.8284 1.17157 15.5 2 15.5V12.5ZM34 15.5C34.8284 15.5 35.5 14.8284 35.5 14C35.5 13.1716 34.8284 12.5 34 12.5V15.5ZM4.18359 37.564L4.86458 36.2275L4.86458 36.2275L4.18359 37.564ZM2.43597 35.8161L1.09946 36.497L1.09946 36.497L2.43597 35.8161ZM33.5645 35.8161L32.2279 35.1351L33.5645 35.8161ZM31.8156 37.564L31.1346 36.2275L31.8156 37.564ZM31.8156 6.43597L32.4966 5.09946L32.4966 5.09946L31.8156 6.43597ZM33.5645 8.18408L32.2279 8.86507L32.2279 8.86507L33.5645 8.18408ZM4.18359 6.43597L4.86458 7.77248L4.18359 6.43597ZM2.43597 8.18408L3.77248 8.86507L2.43597 8.18408ZM25.0607 23.0607C25.6464 22.4749 25.6464 21.5251 25.0607 20.9393C24.4749 20.3536 23.5251 20.3536 22.9393 20.9393L25.0607 23.0607ZM16 30L14.9393 31.0607C15.5251 31.6464 16.4749 31.6464 17.0607 31.0607L16 30ZM13.0607 24.9393C12.4749 24.3536 11.5251 24.3536 10.9393 24.9393C10.3536 25.5251 10.3536 26.4749 10.9393 27.0607L13.0607 24.9393ZM27.5 2C27.5 1.17157 26.8284 0.5 26 0.5C25.1716 0.5 24.5 1.17157 24.5 2H27.5ZM24.5 6C24.5 6.82843 25.1716 7.5 26 7.5C26.8284 7.5 27.5 6.82843 27.5 6H24.5ZM11.5 2C11.5 1.17157 10.8284 0.5 10 0.5C9.17157 0.5 8.5 1.17157 8.5 2H11.5ZM8.5 6C8.5 6.82843 9.17157 7.5 10 7.5C10.8284 7.5 11.5 6.82843 11.5 6H8.5ZM2 15.5H34V12.5H2V15.5ZM8.40039 7.5H27.6004V4.5H8.40039V7.5ZM32.5 12.3999V31.5999H35.5V12.3999H32.5ZM27.6004 36.5H8.40039V39.5H27.6004V36.5ZM3.5 31.5999V12.3999H0.5V31.5999H3.5ZM8.40039 36.5C7.25557 36.5 6.4869 36.4988 5.89493 36.4505C5.32036 36.4035 5.04564 36.3197 4.86458 36.2275L3.50261 38.9005C4.1772 39.2442 4.89077 39.3784 5.65064 39.4405C6.39309 39.5012 7.305 39.5 8.40039 39.5V36.5ZM0.5 31.5999C0.5 32.6953 0.498834 33.607 0.559478 34.3493C0.62155 35.1091 0.755766 35.8225 1.09946 36.497L3.77248 35.1351C3.68021 34.954 3.59644 34.6794 3.54952 34.1051C3.50117 33.5132 3.5 32.7448 3.5 31.5999H0.5ZM4.86458 36.2275C4.3944 35.9879 4.01228 35.6057 3.77248 35.1351L1.09946 36.497C1.62665 37.5317 2.46749 38.3731 3.50261 38.9005L4.86458 36.2275ZM32.5 31.5999C32.5 32.7449 32.4989 33.5134 32.4507 34.1053C32.4038 34.6797 32.3201 34.9541 32.2279 35.1351L34.901 36.497C35.2447 35.8223 35.3788 35.1088 35.4408 34.3491C35.5013 33.6069 35.5 32.6951 35.5 31.5999H32.5ZM27.6004 39.5C28.6958 39.5 29.6073 39.5012 30.3494 39.4405C31.1091 39.3784 31.8221 39.2441 32.4966 38.9005L31.1346 36.2275C30.9534 36.3198 30.6789 36.4035 30.105 36.4505C29.5134 36.4988 28.7452 36.5 27.6004 36.5V39.5ZM32.2279 35.1351C31.9887 35.6047 31.6058 35.9874 31.1346 36.2275L32.4966 38.9005C33.5307 38.3736 34.3733 37.5327 34.901 36.497L32.2279 35.1351ZM27.6004 7.5C28.7453 7.5 29.5135 7.50117 30.105 7.54951C30.6789 7.59642 30.9534 7.68016 31.1346 7.77248L32.4966 5.09946C31.8221 4.75582 31.1091 4.62157 30.3494 4.55948C29.6073 4.49883 28.6957 4.5 27.6004 4.5V7.5ZM35.5 12.3999C35.5 11.3047 35.5013 10.393 35.4408 9.65086C35.3788 8.89119 35.2447 8.17778 34.901 7.5031L32.2279 8.86507C32.3202 9.04604 32.4038 9.32043 32.4507 9.8947C32.4989 10.4865 32.5 11.2549 32.5 12.3999H35.5ZM31.1346 7.77248C31.6056 8.01248 31.9886 8.39528 32.2279 8.86507L34.901 7.5031C34.3733 6.46759 33.5308 5.62645 32.4966 5.09946L31.1346 7.77248ZM8.40039 4.5C7.30502 4.5 6.39311 4.49883 5.65067 4.55948C4.89081 4.62154 4.17722 4.75573 3.50261 5.09946L4.86458 7.77248C5.04561 7.68024 5.32031 7.59645 5.89489 7.54952C6.48688 7.50117 7.25555 7.5 8.40039 7.5V4.5ZM3.5 12.3999C3.5 11.255 3.50117 10.4867 3.54951 9.89494C3.59643 9.32074 3.68019 9.0462 3.77248 8.86507L1.09946 7.5031C0.755784 8.17761 0.621557 8.89087 0.559479 9.65063C0.498833 10.3929 0.5 11.3046 0.5 12.3999H3.5ZM3.50261 5.09946C2.46733 5.62697 1.62657 6.46859 1.09946 7.5031L3.77248 8.86507C4.01236 8.39427 4.39456 8.01197 4.86458 7.77248L3.50261 5.09946ZM22.9393 20.9393L14.9393 28.9393L17.0607 31.0607L25.0607 23.0607L22.9393 20.9393ZM17.0607 28.9393L13.0607 24.9393L10.9393 27.0607L14.9393 31.0607L17.0607 28.9393ZM24.5 2V6H27.5V2H24.5ZM8.5 2V6H11.5V2H8.5Z" fill="#52525B"/>
</svg>
