<svg width="36" height="36" viewBox="0 0 36 36" fill="none" xmlns="http://www.w3.org/2000/svg">
<path d="M27.6004 34L27.6004 32.5H27.6004V34ZM8.40039 34L8.40039 35.5H8.40039V34ZM34.0004 27.6L35.5004 27.6V27.6H34.0004ZM33.5645 31.8159L34.901 32.4969L34.901 32.4969L33.5645 31.8159ZM31.8156 33.564L32.4966 34.9005L32.4966 34.9005L31.8156 33.564ZM31.8156 2.43597L32.4966 1.09946L32.4966 1.09946L31.8156 2.43597ZM34.0004 8.40005L32.5004 8.40005V8.40005H34.0004ZM33.5645 4.18408L32.2279 4.86507L32.2279 4.86507L33.5645 4.18408ZM2.43597 4.18408L1.09946 3.5031L1.09946 3.5031L2.43597 4.18408ZM4.18359 2.43597L4.86458 3.77248L4.86458 3.77248L4.18359 2.43597ZM2.43597 31.8159L3.77248 31.135L3.77248 31.135L2.43597 31.8159ZM4.18359 33.564L4.86458 32.2275L4.86458 32.2275L4.18359 33.564ZM10 16.5C9.17157 16.5 8.5 17.1716 8.5 18C8.5 18.8284 9.17157 19.5 10 19.5V16.5ZM26 19.5C26.8284 19.5 27.5 18.8284 27.5 18C27.5 17.1716 26.8284 16.5 26 16.5V19.5ZM16.5 26C16.5 26.8284 17.1716 27.5 18 27.5C18.8284 27.5 19.5 26.8284 19.5 26H16.5ZM19.5 10C19.5 9.17157 18.8284 8.5 18 8.5C17.1716 8.5 16.5 9.17157 16.5 10H19.5ZM3.5 27.6V8.40002H0.5V27.6H3.5ZM8.40039 3.5H27.6004V0.5H8.40039V3.5ZM27.6004 32.5H8.40039V35.5H27.6004V32.5ZM32.5004 27.6C32.5004 28.7448 32.4993 29.5133 32.4509 30.105C32.404 30.6793 32.3202 30.9538 32.2279 31.135L34.901 32.4969C35.2447 31.8224 35.3789 31.1091 35.4409 30.3493C35.5016 29.607 35.5004 28.6953 35.5004 27.6L32.5004 27.6ZM27.6004 35.5C28.6958 35.5 29.6073 35.5012 30.3494 35.4405C31.1091 35.3784 31.8221 35.2441 32.4966 34.9005L31.1346 32.2275C30.9534 32.3198 30.6789 32.4035 30.105 32.4505C29.5135 32.4988 28.7452 32.5 27.6004 32.5L27.6004 35.5ZM32.2279 31.135C31.9886 31.6047 31.6057 31.9874 31.1346 32.2275L32.4966 34.9005C33.5308 34.3735 34.3733 33.5325 34.901 32.4969L32.2279 31.135ZM27.6004 3.5C28.7453 3.5 29.5135 3.50117 30.105 3.54951C30.6789 3.59642 30.9534 3.68016 31.1346 3.77248L32.4966 1.09946C31.8221 0.755819 31.1091 0.621569 30.3494 0.559481C29.6073 0.498833 28.6957 0.5 27.6004 0.5V3.5ZM35.5004 8.40005C35.5004 7.30469 35.5016 6.39296 35.4409 5.6507C35.3789 4.89093 35.2447 4.17762 34.901 3.5031L32.2279 4.86507C32.3202 5.04619 32.404 5.32075 32.4509 5.895C32.4993 6.48676 32.5004 7.25519 32.5004 8.40005L35.5004 8.40005ZM31.1346 3.77248C31.6056 4.01248 31.9886 4.39527 32.2279 4.86507L34.901 3.5031C34.3733 2.46759 33.5308 1.62646 32.4966 1.09946L31.1346 3.77248ZM3.5 8.40002C3.5 7.25517 3.50117 6.48674 3.54952 5.89499C3.59643 5.32075 3.6802 5.04619 3.77248 4.86507L1.09946 3.5031C0.755777 4.17762 0.621554 4.89093 0.559478 5.65069C0.498833 6.39295 0.5 7.30467 0.5 8.40002H3.5ZM8.40039 0.5C7.30502 0.5 6.39311 0.498834 5.65067 0.559475C4.89081 0.621539 4.17722 0.755731 3.50261 1.09946L4.86458 3.77248C5.04561 3.68024 5.32031 3.59645 5.89489 3.54952C6.48688 3.50117 7.25555 3.5 8.40039 3.5V0.5ZM3.77248 4.86507C4.01236 4.39428 4.39456 4.01197 4.86458 3.77248L3.50261 1.09946C2.46733 1.62697 1.62657 2.46859 1.09946 3.5031L3.77248 4.86507ZM0.5 27.6C0.5 28.6954 0.498833 29.6071 0.559479 30.3493C0.621555 31.1091 0.755779 31.8224 1.09946 32.4969L3.77248 31.135C3.6802 30.9538 3.59643 30.6793 3.54951 30.105C3.50117 29.5133 3.5 28.7449 3.5 27.6H0.5ZM8.40039 32.5C7.25557 32.5 6.4869 32.4988 5.89493 32.4505C5.32036 32.4035 5.04564 32.3197 4.86458 32.2275L3.50261 34.9005C4.1772 35.2442 4.89077 35.3784 5.65064 35.4405C6.39309 35.5012 7.305 35.5 8.40039 35.5L8.40039 32.5ZM1.09946 32.4969C1.6266 33.5315 2.46739 34.373 3.50261 34.9005L4.86458 32.2275C4.3945 31.9879 4.01233 31.6057 3.77248 31.135L1.09946 32.4969ZM32.5004 8.40005V27.6H35.5004V8.40005H32.5004ZM10 19.5H26V16.5H10V19.5ZM19.5 26V10H16.5V26H19.5Z" fill="#52525B"/>
</svg>
