<svg width="40" height="40" viewBox="0 0 40 40" fill="none" xmlns="http://www.w3.org/2000/svg">
<path d="M15.0059 4.51444C14.3984 2.9958 12.9276 2 11.292 2H5.78947C3.69661 2 2 3.69668 2 5.78955C2 23.5789 16.4216 37.9999 34.2109 37.9999C36.3038 37.9999 38 36.3035 38 34.2106L37.9998 28.708C37.9998 27.0724 37.0038 25.6017 35.4852 24.9943L30.2143 22.8858C28.8501 22.3401 27.2971 22.586 26.1684 23.5266L24.8062 24.6614C23.2168 25.9859 20.88 25.88 19.4171 24.4171L15.5827 20.583C14.1199 19.1201 14.0144 16.7831 15.3389 15.1938L16.4736 13.8319C17.4142 12.7033 17.66 11.1499 17.1144 9.78573L15.0059 4.51444Z" stroke="#52525B" stroke-width="3" stroke-linecap="round" stroke-linejoin="round"/>
</svg>
